<svg id="visual" viewBox="0 0 900 600" width="900" height="600" xmlns="http://www.w3.org/2000/svg" xmlns:xlink="http://www.w3.org/1999/xlink" version="1.1"><rect x="0" y="0" width="900" height="600" fill="#0D1117"></rect><path d="M0 467L21.5 462.2C43 457.3 86 447.7 128.8 435.8C171.7 424 214.3 410 257.2 408.2C300 406.3 343 416.7 385.8 423.2C428.7 429.7 471.3 432.3 514.2 428.2C557 424 600 413 642.8 414.2C685.7 415.3 728.3 428.7 771.2 434.3C814 440 857 438 878.5 437L900 436L900 601L878.5 601C857 601 814 601 771.2 601C728.3 601 685.7 601 642.8 601C600 601 557 601 514.2 601C471.3 601 428.7 601 385.8 601C343 601 300 601 257.2 601C214.3 601 171.7 601 128.8 601C86 601 43 601 21.5 601L0 601Z" fill="#c81c5d"></path><path d="M0 444L21.5 447C43 450 86 456 128.8 455.8C171.7 455.7 214.3 449.3 257.2 445.5C300 441.7 343 440.3 385.8 442C428.7 443.7 471.3 448.3 514.2 448.3C557 448.3 600 443.7 642.8 445.3C685.7 447 728.3 455 771.2 463C814 471 857 479 878.5 483L900 487L900 601L878.5 601C857 601 814 601 771.2 601C728.3 601 685.7 601 642.8 601C600 601 557 601 514.2 601C471.3 601 428.7 601 385.8 601C343 601 300 601 257.2 601C214.3 601 171.7 601 128.8 601C86 601 43 601 21.5 601L0 601Z" fill="#ba1c6a"></path><path d="M0 522L21.5 519.3C43 516.7 86 511.3 128.8 511.3C171.7 511.3 214.3 516.7 257.2 512.2C300 507.7 343 493.3 385.8 489.2C428.7 485 471.3 491 514.2 496.7C557 502.3 600 507.7 642.8 509.2C685.7 510.7 728.3 508.3 771.2 503.8C814 499.3 857 492.7 878.5 489.3L900 486L900 601L878.5 601C857 601 814 601 771.2 601C728.3 601 685.7 601 642.8 601C600 601 557 601 514.2 601C471.3 601 428.7 601 385.8 601C343 601 300 601 257.2 601C214.3 601 171.7 601 128.8 601C86 601 43 601 21.5 601L0 601Z" fill="#a92274"></path><path d="M0 504L21.5 507.2C43 510.3 86 516.7 128.8 516.8C171.7 517 214.3 511 257.2 507.7C300 504.3 343 503.7 385.8 506.8C428.7 510 471.3 517 514.2 521.3C557 525.7 600 527.3 642.8 531.5C685.7 535.7 728.3 542.3 771.2 540.3C814 538.3 857 527.7 878.5 522.3L900 517L900 601L878.5 601C857 601 814 601 771.2 601C728.3 601 685.7 601 642.8 601C600 601 557 601 514.2 601C471.3 601 428.7 601 385.8 601C343 601 300 601 257.2 601C214.3 601 171.7 601 128.8 601C86 601 43 601 21.5 601L0 601Z" fill="#96297c"></path><path d="M0 569L21.5 569.5C43 570 86 571 128.8 572.3C171.7 573.7 214.3 575.3 257.2 571.5C300 567.7 343 558.3 385.8 552.5C428.7 546.7 471.3 544.3 514.2 548.5C557 552.7 600 563.3 642.8 568.2C685.7 573 728.3 572 771.2 567.3C814 562.7 857 554.3 878.5 550.2L900 546L900 601L878.5 601C857 601 814 601 771.2 601C728.3 601 685.7 601 642.8 601C600 601 557 601 514.2 601C471.3 601 428.7 601 385.8 601C343 601 300 601 257.2 601C214.3 601 171.7 601 128.8 601C86 601 43 601 21.5 601L0 601Z" fill="#813082"></path></svg>